<svg xmlns="http://www.w3.org/2000/svg" width="24" height="26" viewBox="0 0 24 26">
  <metadata><?xpacket begin="﻿" id="W5M0MpCehiHzreSzNTczkc9d"?>
<x:xmpmeta xmlns:x="adobe:ns:meta/" x:xmptk="Adobe XMP Core 5.6-c142 79.160924, 2017/07/13-01:06:39        ">
   <rdf:RDF xmlns:rdf="http://www.w3.org/1999/02/22-rdf-syntax-ns#">
      <rdf:Description rdf:about=""/>
   </rdf:RDF>
</x:xmpmeta>
                                                                                                    
                                                                                                    
                                                                                                    
                                                                                                    
                                                                                                    
                                                                                                    
                                                                                                    
                                                                                                    
                                                                                                    
                                                                                                    
                                                                                                    
                                                                                                    
                                                                                                    
                                                                                                    
                                                                                                    
                                                                                                    
                                                                                                    
                                                                                                    
                                                                                                    
                                                                                                    
                           
<?xpacket end="w"?></metadata>
<defs>
    <style>
      .cls-1 {
        fill: #fff;
        fill-rule: evenodd;
      }
    </style>
  </defs>
  <path id="Moon_icon" data-name="Moon icon" class="cls-1" d="M10.9,26A13.145,13.145,0,0,1,.249,20.539a1,1,0,0,1-.06-1.068,1.008,1.008,0,0,1,.945-0.512L1.3,18.971C1.477,18.983,1.655,19,1.836,19a11.053,11.053,0,0,0,11.075-11,10.879,10.879,0,0,0-2.065-6.383A1,1,0,0,1,10.785.541,1.006,1.006,0,0,1,11.729.028,13,13,0,0,1,10.9,26ZM3.235,20.924a11.078,11.078,0,0,0,18.738-7.93A11.032,11.032,0,0,0,13.618,2.338a12.814,12.814,0,0,1,1.307,5.653A13.056,13.056,0,0,1,3.235,20.924Z"/>
</svg>
